<svg width="24" height="24" viewBox="0 0 24 24" fill="none" xmlns="http://www.w3.org/2000/svg">
<path opacity="0.24" d="M20.8001 3H3.2001C2.77575 3 2.36878 3.1724 2.06873 3.47928C1.76867 3.78616 1.6001 4.20237 1.6001 4.63636V19.3636C1.6001 19.7976 1.76867 20.2138 2.06873 20.5207C2.36878 20.8276 2.77575 21 3.2001 21H20.8001C21.2244 21 21.6314 20.8276 21.9315 20.5207C22.2315 20.2138 22.4001 19.7976 22.4001 19.3636V4.63636C22.4001 4.20237 22.2315 3.78616 21.9315 3.47928C21.6314 3.1724 21.2244 3 20.8001 3ZM8.4801 13.8C8.64984 13.9302 8.76205 14.124 8.79206 14.3388C8.82206 14.5537 8.7674 14.7719 8.6401 14.9455C8.51279 15.1191 8.32328 15.2338 8.11323 15.2645C7.90319 15.2952 7.68984 15.2393 7.5201 15.1091L4.3201 12.6545C4.22074 12.5783 4.1401 12.4795 4.08456 12.3659C4.02901 12.2523 4.0001 12.127 4.0001 12C4.0001 11.873 4.02901 11.7477 4.08456 11.6341C4.1401 11.5205 4.22074 11.4217 4.3201 11.3455L7.5201 8.89091C7.68984 8.76071 7.90319 8.70481 8.11323 8.7355C8.32328 8.76618 8.51279 8.88095 8.6401 9.05455C8.7674 9.22814 8.82206 9.44635 8.79206 9.66116C8.76205 9.87598 8.64984 10.0698 8.4801 10.2L6.1331 12L8.4801 13.8ZM14.3691 6.49773L11.1691 17.9523C11.1418 18.0574 11.0943 18.1559 11.0294 18.2421C10.9644 18.3282 10.8833 18.4002 10.7909 18.454C10.6984 18.5077 10.5963 18.542 10.4907 18.5549C10.3851 18.5678 10.2781 18.559 10.1758 18.5291C10.0735 18.4992 9.97815 18.4487 9.89519 18.3806C9.81224 18.3126 9.74339 18.2283 9.69267 18.1326C9.64195 18.037 9.61038 17.932 9.59981 17.8238C9.58923 17.7156 9.59987 17.6063 9.6311 17.5023L12.8311 6.04773C12.8926 5.84291 13.0302 5.67094 13.2143 5.56877C13.3985 5.4666 13.6145 5.44237 13.8159 5.5013C14.0173 5.56024 14.1881 5.69762 14.2915 5.88394C14.395 6.07025 14.4228 6.29063 14.3691 6.49773ZM19.6801 12.6545L16.4801 15.1091C16.3104 15.2393 16.097 15.2952 15.887 15.2645C15.6769 15.2338 15.4874 15.1191 15.3601 14.9455C15.2328 14.7719 15.1781 14.5537 15.2081 14.3388C15.2381 14.124 15.3504 13.9302 15.5201 13.8L17.8671 12L15.5201 10.2C15.4361 10.1355 15.3652 10.0548 15.3117 9.96231C15.2582 9.86986 15.223 9.76753 15.2081 9.66116C15.1933 9.5548 15.1991 9.44648 15.2251 9.3424C15.2512 9.23831 15.2971 9.1405 15.3601 9.05455C15.4231 8.96859 15.5021 8.89617 15.5925 8.84143C15.6829 8.78669 15.783 8.75069 15.887 8.7355C15.991 8.7203 16.0969 8.7262 16.1986 8.75287C16.3004 8.77954 16.3961 8.82644 16.4801 8.89091L19.6801 11.3455C19.7795 11.4217 19.8601 11.5205 19.9156 11.6341C19.9712 11.7477 20.0001 11.873 20.0001 12C20.0001 12.127 19.9712 12.2523 19.9156 12.3659C19.8601 12.4795 19.7795 12.5783 19.6801 12.6545Z" fill="#919EAB"/>
<path fill-rule="evenodd" clip-rule="evenodd" d="M8.79196 14.3391C8.76195 14.1242 8.64974 13.9304 8.48 13.8002L6.133 12.0002L8.48 10.2002C8.64974 10.07 8.76195 9.8762 8.79196 9.66139C8.82196 9.44657 8.7673 9.22837 8.64 9.05477C8.5127 8.88117 8.32318 8.76641 8.11314 8.73572C7.9031 8.70503 7.68974 8.76094 7.52 8.89113L4.32 11.3457C4.22064 11.4219 4.14 11.5207 4.08446 11.6343C4.02892 11.7479 4 11.8732 4 12.0002C4 12.1272 4.02892 12.2525 4.08446 12.3661C4.14 12.4797 4.22064 12.5786 4.32 12.6548L7.52 15.1093C7.68974 15.2395 7.9031 15.2954 8.11314 15.2647C8.32318 15.234 8.5127 15.1193 8.64 14.9457C8.7673 14.7721 8.82196 14.5539 8.79196 14.3391ZM11.169 17.9525L14.369 6.49795C14.4227 6.29086 14.3949 6.07048 14.2914 5.88416C14.188 5.69785 14.0172 5.56046 13.8158 5.50153C13.6144 5.4426 13.3984 5.46682 13.2142 5.56899C13.0301 5.67117 12.8925 5.84314 12.831 6.04795L9.631 17.5025C9.59978 17.6065 9.58914 17.7158 9.59971 17.824C9.61028 17.9323 9.64185 18.0373 9.69257 18.1329C9.74329 18.2285 9.81214 18.3128 9.8951 18.3809C9.97805 18.4489 10.0734 18.4994 10.1757 18.5293C10.278 18.5592 10.385 18.568 10.4906 18.5551C10.5962 18.5422 10.6983 18.5079 10.7908 18.4542C10.8833 18.4005 10.9643 18.3284 11.0293 18.2423C11.0942 18.1562 11.1417 18.0576 11.169 17.9525ZM16.48 15.1093L19.68 12.6548C19.7794 12.5786 19.86 12.4797 19.9155 12.3661C19.9711 12.2525 20 12.1272 20 12.0002C20 11.8732 19.9711 11.7479 19.9155 11.6343C19.86 11.5207 19.7794 11.4219 19.68 11.3457L16.48 8.89113C16.396 8.82667 16.3003 8.77976 16.1985 8.7531C16.0968 8.72643 15.9909 8.72053 15.8869 8.73572C15.7829 8.75092 15.6828 8.78691 15.5924 8.84166C15.502 8.8964 15.423 8.96881 15.36 9.05477C15.297 9.14073 15.2511 9.23854 15.225 9.34262C15.199 9.44671 15.1932 9.55502 15.208 9.66139C15.2229 9.76775 15.2581 9.87008 15.3116 9.96254C15.3651 10.055 15.436 10.1358 15.52 10.2002L17.867 12.0002L15.52 13.8002C15.3503 13.9304 15.238 14.1242 15.208 14.3391C15.178 14.5539 15.2327 14.7721 15.36 14.9457C15.4873 15.1193 15.6768 15.234 15.8869 15.2647C16.0969 15.2954 16.3103 15.2395 16.48 15.1093Z" fill="#637381"/>
</svg>
