<svg width="24" height="24" viewBox="0 0 24 24" fill="none" xmlns="http://www.w3.org/2000/svg">
<path opacity="0.32" d="M18.8066 14.34V10.43" stroke="#637381" stroke-width="1.5" stroke-linecap="round"/>
<path opacity="0.32" d="M9.5498 5.97375H14.3098" stroke="#637381" stroke-width="1.5" stroke-linecap="round"/>
<path opacity="0.32" d="M5.3335 14.37V10.12" stroke="#637381" stroke-width="1.5" stroke-linecap="round"/>
<circle cx="5.32471" cy="5.91498" r="3.375" fill="#637381"/>
<path opacity="0.32" d="M4.74671 15.5254C5.02108 15.0782 5.6461 15.0782 5.92047 15.5254L9.00586 20.5539C9.30355 21.0391 8.97032 21.6765 8.41898 21.6765H2.2482C1.69686 21.6765 1.36362 21.0391 1.66132 20.5539L4.74671 15.5254Z" fill="#637381"/>
<rect x="15.5635" y="15.19" width="6.48649" height="6.48649" rx="1.25" fill="#637381"/>
<path opacity="0.36" d="M15.5112 6.77422C15.0698 6.33281 15.0698 5.61714 15.5112 5.17574L18.0059 2.68103C18.4473 2.23962 19.163 2.23962 19.6044 2.68103L22.0991 5.17573C22.5405 5.61714 22.5405 6.33281 22.0991 6.77422L19.6044 9.26892C19.163 9.71033 18.4473 9.71033 18.0059 9.26892L15.5112 6.77422Z" fill="#637381"/>
</svg>
